<svg xmlns="http://www.w3.org/2000/svg"
shape-rendering="geometricPrecision"
width="4000" height="4000" viewBox="0 0 468 468">
  <metadata>null</metadata>

<path d="
M 28.92 403.096
C 29.805 398.317 31.025 393.79 33.43 389.519
C 41.319 375.508 57.408 369.18 72.966 371.182
C 80.341 372.132 87.389 374.774 92.839 379.995
C 93.916 381.027 96.814 383.312 97.074 384.796
C 94.448 386.994 91.619 388.984 88.917 391.093
C 87.644 392.086 86.534 393.418 85.178 394.28
C 83.86 393.626 82.625 391.322 81.439 390.296
C 78.14 387.439 73.926 385.639 69.583 385.27
C 65.977 384.963 62.061 385.413 58.699 386.776
C 39.642 394.502 39.782 424.766 59.636 431.518
C 62.325 432.432 65.216 432.81 68.052 432.674
C 70.982 432.534 73.82 431.817 76.435 430.483
C 80.02 428.653 82.556 426.328 84.954 423.123
C 87.275 424.256 89.461 426.445 91.582 427.969
C 93.4 429.275 95.764 430.393 97.311 432.006
C 85.887 449.554 57.667 451.439 42.206 438.64
C 31.679 429.926 27.071 416.558 28.92 403.096 Z"
opacity="1" fill="rgb(43,43,53)" fill-rule="evenodd" />
<path d="
M 79.942 147.61
C 80.61 142.421 80.919 137.223 81.859 132.06
C 84.385 118.202 89.349 104.212 96.43 92.016
C 106.359 74.916 119.454 59.82 135.409 48.041
C 166.499 25.087 206.768 16.823 244.528 24.388
C 264.291 28.347 282.827 36.5 299.122 48.347
C 302.949 51.129 306.582 54.2 310.059 57.406
C 311.329 58.578 313.784 60.216 314.463 61.806
C 313.349 63.45 311.586 64.653 310.271 66.137
C 304.957 72.139 299.087 77.644 293.392 83.278
C 291.515 85.135 289.644 86.998 287.79 88.88
C 287.038 89.644 286.158 90.992 285.16 91.411
C 274.638 81.648 263.282 73.644 249.656 68.785
C 212.261 55.45 169.046 66.517 143.601 97.182
C 139.528 102.09 135.796 107.289 132.84 112.96
C 124.466 129.027 120.856 146.841 122.291 164.878
C 122.595 168.697 123.137 172.499 123.959 176.241
C 124.422 178.354 125.538 180.749 125.704 182.867
C 122.596 184.428 119.161 185.582 115.965 187.001
C 110.536 189.41 105.252 192.079 99.979 194.805
C 96.548 196.579 93.233 198.555 89.903 200.508
C 89.471 200.761 87.298 202.424 87.002 202.113
C 86.681 200.035 85.679 197.974 85.105 195.946
C 84.056 192.236 83.125 188.541 82.298 184.776
C 79.639 172.666 79.027 159.96 79.942 147.61 Z"
opacity="1" fill="rgb(43,43,53)" fill-rule="evenodd" />
<path d="
M 91.315 212.537
C 94.61 210.74 97.658 208.516 100.918 206.658
C 108.685 202.231 116.771 198.323 124.967 194.762
C 139.984 188.238 155.972 183.098 171.807 178.971
C 203.109 170.812 234.532 165.087 266.668 161.441
C 284.425 159.426 302.153 158.811 319.984 158.033
C 326.497 157.749 332.991 157.838 339.508 157.894
C 343.26 157.926 347.1 157.62 350.838 157.863
C 349.343 152.45 347.404 146.338 344.944 141.295
C 355.074 147.044 366.105 151.68 376.671 156.591
C 379.456 157.885 382.188 159.29 385.019 160.48
C 385.736 160.781 387.738 161.407 388.091 162.114
C 388.234 162.402 387.511 162.684 387.38 162.745
C 386.444 163.188 385.531 163.67 384.599 164.122
C 380.67 166.026 376.795 168.044 372.849 169.911
C 366.472 172.928 360.201 176.143 353.876 179.263
C 351.378 180.496 348.508 182.68 345.812 183.258
C 346.524 179.341 347.993 175.199 349.314 171.439
C 349.877 169.837 351.136 167.867 351.212 166.18
C 343.636 167.096 336.036 167.682 328.464 168.8
C 311.567 171.293 294.482 175.176 278.326 180.702
C 267.044 184.56 255.882 189.157 246.02 195.967
C 239.5 200.47 233.108 206.492 230.472 214.164
C 226.447 225.873 233.4 237.381 242.379 244.532
C 244.174 245.961 246.028 247.753 248.069 248.803
C 250.414 248.548 253.288 246.843 255.521 245.976
C 262.798 243.15 269.895 239.391 276.167 234.726
C 278.096 233.291 280.065 231.861 281.878 230.278
C 282.856 229.425 283.854 228.125 285.041 227.604
C 287.845 229.389 290.271 232.451 292.655 234.768
C 297.635 239.606 302.556 244.506 307.566 249.314
C 309.403 251.076 311.231 252.848 313.036 254.642
C 313.628 255.23 314.924 256.06 315.021 256.888
C 309.106 263.901 300.628 269.789 292.934 274.667
C 265.343 292.157 230.973 299.683 198.579 294.656
C 189.688 293.277 181.002 291.41 172.497 288.441
C 170.664 287.802 168.859 287.07 167.023 286.45
C 166.01 286.108 164.648 285.846 163.851 285.112
C 161.471 281.031 160.777 275.745 159.532 271.269
C 155.796 271.561 151.971 271.942 148.251 272.39
C 148.28 274.169 148.573 276.134 149.18 277.811
C 148.808 277.921 148.363 277.36 148.089 277.151
C 147.084 276.389 145.967 275.779 144.884 275.138
C 140.254 272.399 136.05 269.226 131.847 265.883
C 117.701 254.629 105.807 240.506 96.885 224.801
C 94.679 220.918 93.094 216.739 91.178 212.722
C 91.224 212.661 91.27 212.599 91.315 212.537 Z
M 148.968 243.112
C 148.913 243.326 148.858 243.54 148.802 243.754
C 152.182 243.473 155.468 243.922 158.813 244.225
C 158.613 242.351 159.405 240.262 159.811 238.449
C 161.263 231.961 164.297 225.61 167.779 219.983
C 168.829 218.285 171.312 216.255 171.885 214.452
C 169.597 213.487 166.677 212.773 164.271 212.127
C 162.839 213.553 161.729 215.484 160.535 217.117
C 154.64 225.178 151.63 233.604 148.968 243.112 Z
M 184.215 195.056
C 184.144 195.176 184.074 195.297 184.004 195.417
C 186.054 196.224 187.83 198.073 189.95 198.645
C 194.217 196.325 198.154 193.445 202.479 191.165
C 206.63 188.976 211.258 187.718 215.371 185.583
C 214.348 184.384 213.163 183.249 211.997 182.187
C 209.951 182.387 207.833 183.998 205.885 184.691
C 198.281 187.4 191.353 191.376 184.215 195.056 Z
M 235.075 174.767
C 235.856 175.877 236.643 177.041 237.346 178.2
C 239.241 178.205 241.758 176.807 243.582 176.235
C 247.192 175.104 250.977 174.473 254.645 173.555
C 255.875 173.248 257.149 172.968 258.403 172.785
C 258.656 172.748 259.677 172.793 259.787 172.519
C 259.509 171.529 258.862 170.335 258.083 169.653
C 252.868 170.424 247.636 171.78 242.507 173.015
C 240.089 173.597 237.532 174.5 235.075 174.767 Z
M 279.545 165.944
C 279.333 166.008 279.121 166.072 278.91 166.136
C 279.158 166.893 279.291 167.65 279.546 168.402
C 281.427 168.468 283.449 167.777 285.309 167.482
C 288.842 166.923 292.454 166.588 295.963 165.954
C 296.356 165.578 296.086 164.358 295.981 163.855
C 290.609 163.777 284.876 165.271 279.545 165.944 Z
M 312.355 162.369
C 312.373 162.599 312.347 163.735 312.713 163.918
C 313.226 164.174 314.526 163.76 315.084 163.691
C 317.379 163.407 319.716 163.285 321.991 162.93
C 322.492 162.852 324.18 163.092 324.495 162.649
C 324.687 162.378 324.513 161.577 324.485 161.33
C 323.61 160.963 322.311 161.305 321.363 161.376
C 318.653 161.577 314.814 161.237 312.355 162.369 Z
M 337.461 160.515
C 337.361 160.634 337.262 160.754 337.162 160.873
C 337.162 161.034 337.064 161.912 337.334 162.128
C 337.609 162.347 338.937 162.143 339.282 162.135
C 341.006 162.099 342.746 162.03 344.462 161.87
C 344.748 161.844 345.601 161.906 345.855 161.728
C 346.153 161.518 346.095 161.023 346.079 160.728
C 345.421 160.258 344.291 160.422 343.493 160.419
C 341.487 160.412 339.461 160.345 337.461 160.515 Z"
opacity="1" fill="rgb(43,43,52)" fill-rule="evenodd" />
<path d="
M 105.431 420.608
C 106.117 416.56 107.06 412.703 109.604 409.364
C 117.521 398.971 132.426 399.423 144.088 400.902
C 147.885 401.383 152.146 401.919 155.755 403.22
C 155.8 399.678 155.708 395.352 153.973 392.186
C 149.137 383.365 135.283 384.467 127.013 386.402
C 124.382 387.018 121.851 387.914 119.397 389.025
C 118.699 389.342 117.053 390.549 116.328 390.269
C 115.311 387.315 114.122 384.406 112.958 381.506
C 112.508 380.387 111.774 379.311 111.53 378.133
C 115.255 375.518 120.182 374.065 124.563 373.006
C 140.157 369.235 162.875 370.378 169.323 388.111
C 171.96 395.361 171.453 403.044 171.42 410.624
C 171.37 422.057 171.14 433.537 171.397 444.966
C 167.786 444.756 164.119 444.943 160.501 444.959
C 159.276 444.964 157.56 445.406 156.413 445.043
C 156.479 442.439 156.864 439.149 156.421 436.614
C 156.072 436.57 155.803 437.286 155.608 437.566
C 154.941 438.52 153.994 439.449 153.123 440.227
C 150.36 442.697 146.806 444.383 143.274 445.419
C 128.682 449.697 109.755 444.653 105.856 428.263
C 105.261 425.763 105.168 423.157 105.431 420.608 Z
M 121.017 421.121
C 120.747 429.607 127.489 433.996 135.255 434.379
C 144.963 434.858 155.411 429.215 155.753 418.61
C 155.801 417.119 156.284 414.614 155.698 413.259
C 153.612 412.965 151.535 412.621 149.448 412.326
C 141.171 411.158 126.735 407.745 121.958 417.224
C 121.316 418.499 121.222 419.739 121.017 421.121 Z"
opacity="1" fill="rgb(43,42,52)" fill-rule="evenodd" />
<path d="
M 139.256 153.289
C 143.163 153.451 147.118 153.62 151.003 154.087
C 150.802 158.459 151.172 163.153 152.11 167.43
C 152.541 169.398 153.735 171.754 153.822 173.713
C 150.019 173.819 146.107 176.141 142.436 177.028
C 139.775 169.357 139.54 161.299 139.256 153.289 Z"
opacity="1" fill="rgb(73,174,58)" fill-rule="evenodd" />
<path d="
M 139.916 145.58
C 140.577 142.934 140.871 140.203 141.59 137.558
C 143.314 131.221 146.228 125.424 149.611 119.83
C 150.483 119.822 151.677 121.068 152.408 121.563
C 154.719 123.128 157.153 125.231 159.698 126.361
C 157.098 131.006 154.768 135.407 153.181 140.533
C 152.607 142.388 152.178 144.311 151.897 146.233
C 151.796 146.924 151.833 148.165 151.407 148.724
C 147.823 149.208 143.433 148.057 139.821 147.756
C 139.66 147.022 139.799 146.317 139.916 145.58 Z"
opacity="1" fill="rgb(78,176,61)" fill-rule="evenodd" />
<path d="
M 152.902 114.558
C 157.831 108.6 162.719 102.99 169.148 98.562
C 170.626 97.544 172.264 95.841 173.954 95.262
C 175.93 98.566 178.06 101.815 180.034 105.126
C 179.834 105.668 178.557 106.146 178.082 106.457
C 176.607 107.422 175.145 108.351 173.784 109.48
C 169.303 113.198 166.077 117.439 162.44 121.889
C 158.888 120.514 156.112 116.917 152.745 115.125
C 152.797 114.936 152.849 114.747 152.902 114.558 Z"
opacity="1" fill="rgb(87,181,64)" fill-rule="evenodd" />
<path d="
M 179.355 91.957
C 187.813 87.495 198.054 84.572 207.648 84.376
C 208.133 88.316 207.622 92.34 208.079 96.279
C 203.026 97.132 198.274 97.254 193.342 98.974
C 191.226 99.711 189.165 100.597 187.148 101.571
C 186.489 101.889 185.225 102.949 184.552 102.959
C 183.118 99.47 181.082 95.398 178.956 92.292
C 179.089 92.18 179.222 92.069 179.355 91.957 Z"
opacity="1" fill="rgb(100,185,55)" fill-rule="evenodd" />
<path d="
M 191.419 372.782
C 196.647 372.753 201.939 372.512 207.166 372.668
C 206.841 377.288 206.851 382.131 206.838 386.772
C 206.844 386.866 208.506 384.081 208.889 383.466
C 210.223 381.318 212.033 379.441 213.918 377.773
C 219.598 372.749 226.766 371.081 234.17 371.232
C 234.637 372.461 234.286 374.19 234.281 375.497
C 234.267 379.11 234.015 382.822 234.351 386.422
C 231.335 386.311 227.972 386.689 225.051 387.45
C 222.642 388.078 220.228 388.994 218.115 390.322
C 205.318 398.37 207.576 414.083 207.599 427.127
C 207.606 431.25 207.597 435.373 207.579 439.496
C 207.572 441.056 207.128 443.68 207.67 445.125
C 202.554 445.682 196.962 444.015 191.865 445.097
C 191.484 443.247 191.848 440.911 191.846 439.003
C 191.842 434.836 191.851 430.67 191.84 426.503
C 191.81 415.17 191.802 403.838 191.791 392.505
C 191.785 385.977 192.207 379.272 191.419 372.782 Z"
opacity="1" fill="rgb(44,44,54)" fill-rule="evenodd" />
<path d="
M 203.957 150.087
C 204.711 147.166 207.073 144.512 210.086 143.923
C 211.446 143.657 213.424 143.964 214.594 143.171
C 216.471 141.898 218.051 140.063 219.828 138.641
C 225.317 134.248 230.811 129.862 236.306 125.475
C 238.629 123.62 241.677 120.131 244.584 119.691
C 244.903 119.643 245.997 118.349 246.044 118.383
C 246.139 118.449 244.892 119.756 244.751 119.907
C 243.7 121.033 242.647 122.173 241.698 123.386
C 239.105 126.701 236.586 130.093 234.213 133.57
C 231.555 137.465 228.718 141.234 225.986 145.078
C 224.761 146.802 223.044 148.525 222.134 150.432
C 221.627 151.492 221.931 152.891 221.804 154.036
C 221.547 156.35 220.309 158.661 218.414 160.045
C 211.561 165.047 201.868 158.176 203.957 150.087 Z
M 208.446 152.106
C 207.842 157.462 216.583 158.339 217.138 153.048
C 217.705 147.652 209.056 146.706 208.446 152.106 Z"
opacity="1" fill="rgb(41,40,50)" fill-rule="evenodd" />
<path d="
M 213.766 84.3
C 221.021 84.509 228.183 86.082 235.082 88.255
C 237.591 89.045 240.56 89.816 242.865 91.083
C 241.445 93.399 240.398 96.105 239.242 98.57
C 238.794 99.523 238.36 101.209 237.504 101.86
C 229.701 98.451 222.233 96.85 213.762 96.174
C 213.773 92.213 213.344 88.249 213.766 84.3 Z"
opacity="1" fill="rgb(161,180,31)" fill-rule="evenodd" />
<path d="
M 242.731 104.121
C 244.468 100.655 246.305 97.204 248.148 93.789
C 248.844 93.818 249.547 94.588 250.13 94.963
C 251.46 95.818 252.799 96.651 254.116 97.527
C 258.877 100.69 263.159 104.489 267.033 108.69
C 268.101 109.848 270.351 111.754 270.789 113.282
C 268.116 115.668 264.745 118.581 261.599 120.29
C 260.323 119.409 259.29 117.219 258.177 116.032
C 255.081 112.731 251.557 109.758 247.779 107.266
C 246.306 106.295 244.47 104.903 242.721 104.566
C 242.725 104.418 242.728 104.27 242.731 104.121 Z"
opacity="1" fill="rgb(248,90,26)" fill-rule="evenodd" />
<path d="
M 249.347 348.446
C 265.73 348.268 282.12 348.45 298.505 348.429
C 302.504 348.424 306.505 348.48 310.505 348.447
C 311.44 348.439 314.14 347.969 314.752 348.641
C 314.847 352.244 314.669 355.889 314.672 359.499
C 314.673 360.19 315.042 362.456 314.52 362.929
C 302.181 362.825 289.84 363.026 277.501 363.093
C 274.462 363.109 271.409 363.203 268.379 362.989
C 267.568 362.932 265.688 362.687 265.236 363.307
C 266.035 372.962 265.169 382.85 265.388 392.538
C 274.865 392.133 284.491 392.572 294.001 392.556
C 297.501 392.55 301 392.573 304.5 392.577
C 306.348 392.579 308.372 392.332 310.184 392.696
C 309.799 396.054 310.005 399.621 309.966 403.003
C 309.955 403.972 310.399 406.17 309.785 406.952
C 301.057 406.573 292.236 406.904 283.498 406.904
C 277.549 406.904 271.304 406.363 265.392 407.002
C 265.696 412.297 265.378 417.699 265.369 423.006
C 265.357 430.365 265.577 437.781 265.387 445.127
C 263.302 445.295 261.102 445.024 259.001 445.026
C 255.797 445.029 252.518 445.286 249.324 445.128
C 249.754 437.123 249.327 429.012 249.316 420.996
C 249.293 405.83 249.31 390.664 249.273 375.498
C 249.259 369.517 249.239 363.535 249.253 357.554
C 249.26 354.579 248.969 351.393 249.347 348.446 Z"
opacity="1" fill="rgb(102,182,77)" fill-rule="evenodd" />
<path d="
M 264.649 124.463
C 268.034 122.563 271.148 120.13 274.535 118.21
C 279.711 126.316 284.154 135.737 285.419 145.377
C 281.473 146.024 277.511 146.618 273.572 147.311
C 273.168 146.666 273.234 145.507 273.088 144.737
C 272.717 142.771 272.348 140.811 271.739 138.902
C 270.057 133.624 267.553 129.127 264.649 124.463 Z"
opacity="1" fill="rgb(245,87,29)" fill-rule="evenodd" />
<path d="
M 327.78 344.793
C 330.438 344.179 333.423 344.547 336.134 344.602
C 338.632 344.652 341.124 344.368 343.615 344.383
C 344.23 345.543 343.61 348.151 343.6 349.494
C 343.568 353.827 343.554 358.16 343.543 362.494
C 343.505 378.327 343.528 394.164 343.605 409.997
C 343.624 413.831 343.666 417.665 343.678 421.499
C 343.684 423.524 343.46 425.816 343.999 427.785
C 344.69 430.307 346.902 432.092 349.482 432.43
C 352.229 432.79 354.593 431.633 357.204 431.075
C 356.995 435.319 357.427 439.634 357.363 443.889
C 355.152 445.489 351.47 446.115 348.8 446.341
C 339.929 447.092 330.221 443.849 328.174 434.104
C 327.373 430.29 327.669 426.224 327.682 422.35
C 327.701 416.4 327.722 410.45 327.734 404.5
C 327.772 384.605 328.038 364.685 327.78 344.793 Z"
opacity="1" fill="rgb(100,180,75)" fill-rule="evenodd" />
<path d="
M 363.445 403.591
C 364.19 398.125 366.051 393.109 368.878 388.382
C 378.366 372.52 400.148 366.556 416.882 374.123
C 427.511 378.93 435.256 388.095 438.059 399.423
C 439.133 403.766 439.59 408.446 438.997 412.895
C 437.463 424.401 431.422 435.244 421.221 441.238
C 400.442 453.448 370.822 444.088 364.465 419.831
C 363.095 414.604 362.715 408.951 363.445 403.591 Z
M 379.449 404.089
C 377.806 411.901 380.276 421.292 386.162 426.785
C 395.48 435.481 411.758 434.301 418.91 423.385
C 420.624 420.768 421.893 417.96 422.565 414.896
C 425.282 402.523 418.638 388.245 405.471 385.634
C 402.834 385.111 400.001 385.188 397.361 385.629
C 394.815 386.054 392.2 387.051 389.987 388.386
C 387.374 389.962 385.269 392.037 383.459 394.478
C 381.38 397.281 380.161 400.704 379.449 404.089 Z"
opacity="1" fill="rgb(103,181,78)" fill-rule="evenodd" />

</svg>